{"title":"WWE.NXT.S02E04.HDTV.XviD.avi","uid":5658925,"size":365110731,"categoryP":"video","categoryS":"tv_shows","magnet":"?xt=urn:btih:8a0b80bfd06aac4cdc83916dd539074474bbc0b0&amp;dn=WWE.NXT.S02E04.HDTV.XviD.avi&amp;tr=udp%3A%2F%2Ftracker.openbittorrent.com%3A80&amp;tr=udp%3A%2F%2Fopen.demonii.com%3A1337&amp;tr=udp%3A%2F%2Ftracker.coppersurfer.tk%3A6969&amp;tr=udp%3A%2F%2Fexodus.desync.com%3A6969","seeders":1,"leechers":0,"uploader":"hiest","files":2,"time":1277857372,"description":"General\nComplete name : WWE.NXT.S02E04.HDTV.XviD\nFormat : AVI\nFormat/Info : Audio Video Interleave\nFormat profile : OpenDML\nFile size : 348 MiB\nDuration : 44mn 40s\nOverall bit rate : 1 090 Kbps\nWriting application : AVI-Mux GUI 1.17.8.3, Feb 16 201019:42:50\n\nVideo\nFormat : MPEG-4 Visual\nFormat profile : AdvancedSimple@L5\nFormat settings, BVOP : Yes\nFormat settings, QPel : No\nFormat settings, GMC : No warppoints\nFormat settings, Matrix : Default (H.263)\nCodec ID : XVID\nCodec ID/Hint : XviD\nDuration : 44mn 40s\nBit rate : 959 Kbps\nWidth : 624 pixels\nHeight : 352 pixels\nDisplay aspect ratio : 16:9\nFrame rate : 29.970 fps\nResolution : 24 bits\nColorimetry : 4:2:0\nScan type : Progressive\nBits/(Pixel*Frame) : 0.146\nStream size : 306 MiB (88%)\nWriting library : XviD 1.2.1 (UTC 2008-12-04)\n\nAudio\nFormat : MPEG Audio\nFormat version : Version 1\nFormat profile : Layer 3\nCodec ID : 55\nCodec ID/Hint : MP3\nDuration : 44mn 40s\nBit rate mode : Variable\nBit rate : 121 Kbps\nNominal bit rate : 128 Kbps\nChannel(s) : 2 channels\nSampling rate : 48.0 KHz\nResolution : 16 bits\nStream size : 38.8 MiB (11%)\nAlignment : Aligned on interleaves\nInterleave, duration : 24 ms (0.72 video frame)\nInterleave, preload duration : 229 ms\nTitle : audio\nWriting library : LAME3.98r\nEncoding settings : -m s -V 4 -q 0 -lowpass 17 --abr 128","torrent":{"xt":"urn:btih:8a0b80bfd06aac4cdc83916dd539074474bbc0b0","amp;dn":"WWE.NXT.S02E04.HDTV.XviD.avi","amp;tr":["udp%3A%2F%2Ftracker.openbittorrent.com%3A80","udp%3A%2F%2Fopen.demonii.com%3A1337","udp%3A%2F%2Ftracker.coppersurfer.tk%3A6969","udp%3A%2F%2Fexodus.desync.com%3A6969"],"infoHash":"8a0b80bfd06aac4cdc83916dd539074474bbc0b0","infoHashBuffer":{"type":"Buffer","data":[138,11,128,191,208,106,172,76,220,131,145,109,213,57,7,68,116,187,192,176]},"announce":[],"urlList":[]}}